<svg aria-hidden="true" style="position: absolute; width: 0; height: 0; overflow: hidden;" version="1.1" xmlns="http://www.w3.org/2000/svg" xmlns:xlink="http://www.w3.org/1999/xlink">
<defs>
<symbol id="icon-Be" viewBox="0 0 32 32">
<path d="M29.333 9.333h-9.333v-2.667h9.333v2.667zM31.635 22.667c-0.589 1.729-2.705 4-6.801 4-4.099 0-7.419-2.305-7.419-7.567 0-5.213 3.1-7.893 7.288-7.893 4.109 0 6.619 2.376 7.167 5.901 0.104 0.675 0.145 1.584 0.127 2.853h-10.703c0.173 4.281 4.644 4.416 6.117 2.705h4.224zM21.387 17.333h6.62c-0.14-2.063-1.515-2.959-3.303-2.959-1.955 0-3.036 1.024-3.317 2.959zM8.621 26.651h-8.621v-19.956h9.271c7.301 0.108 7.44 7.259 3.627 9.208 4.615 1.68 4.769 10.748-4.276 10.748v0zM4 14.667h4.779c3.344 0 3.875-4-0.416-4h-4.363v4zM8.521 18.667h-4.521v4.021h4.455c4.073 0 3.824-4.021 0.067-4.021v0z"></path>
</symbol>

<symbol id="icon-linkedin" viewBox="0 0 32 32">
<path d="M12.572 11.959h4.952v2.467c0.713-1.419 2.543-2.693 5.291-2.693 5.268 0 6.519 2.824 6.519 8.005v9.596h-5.333v-8.416c0-2.951-0.713-4.615-2.529-4.615-2.519 0-3.565 1.793-3.565 4.613v8.417h-5.333v-17.375zM3.427 29.107h5.333v-17.375h-5.333v17.375zM9.524 6.067c0 0.447-0.088 0.89-0.261 1.302s-0.425 0.787-0.743 1.101c-0.645 0.641-1.518 1-2.427 0.997-0.907-0.001-1.778-0.358-2.424-0.996-0.317-0.315-0.569-0.69-0.741-1.102s-0.261-0.855-0.262-1.302c0-0.903 0.36-1.767 1.004-2.404 0.645-0.638 1.516-0.996 2.424-0.996 0.909 0 1.781 0.359 2.425 0.996 0.643 0.637 1.004 1.501 1.004 2.404z"></path>
</symbol>

<symbol id="icon-telegram" viewBox="0 0 32 32">
<path d="M27.553 4.956l-23.64 9.116c-1.613 0.648-1.604 1.548-0.296 1.949l6.069 1.893 14.043-8.86c0.664-0.404 1.271-0.187 0.772 0.256l-11.377 10.269-0.419 6.256c0.613 0 0.884-0.281 1.228-0.613l2.948-2.867 6.132 4.529c1.131 0.623 1.943 0.303 2.224-1.047l4.025-18.971c0.412-1.652-0.631-2.4-1.709-1.912z"></path>
</symbol>

<symbol id="mail" viewBox="0 0 39 32">
<path d="M5.556 4c-1.105 0-2 0.895-2 2v20c0 1.105 0.895 2 2 2h28c1.105 0 2-0.895 2-2v-20c0-1.105-0.895-2-2-2h-28zM0.889 6c0-2.577 2.089-4.667 4.667-4.667h28c2.577 0 4.667 2.089 4.667 4.667v20c0 2.577-2.089 4.667-4.667 4.667h-28c-2.577 0-4.667-2.089-4.667-4.667v-20z"></path>
<path d="M6.503 7.181c0.452-0.581 1.29-0.686 1.871-0.234l11.181 8.697 11.181-8.697c0.581-0.452 1.419-0.347 1.871 0.234s0.347 1.419-0.234 1.871l-12 9.333c-0.482 0.375-1.156 0.375-1.637 0l-12-9.333c-0.581-0.452-0.686-1.29-0.234-1.871z"></path>
</symbol>

<symbol id="phone" viewBox="0 0 32 32">
<path d="M7.876 1.211c0.229 0.18 0.486 0.421 0.781 0.713 0.633 0.623 1.368 1.622 1.998 2.58 0.637 0.969 1.228 1.989 1.559 2.7l0 0.001c0.188 0.403 0.357 0.769 0.476 1.090 0.121 0.325 0.221 0.683 0.222 1.074 0.001 0.818-0.442 1.449-0.87 2.031-0.123 0.167-0.227 0.304-0.317 0.422-0.194 0.255-0.321 0.421-0.423 0.614-0.099 0.188-0.128 0.324-0.081 0.543 0.068 0.316 0.362 1.006 0.934 1.91 0.553 0.874 1.31 1.859 2.215 2.761s1.874 1.639 2.731 2.172c0.882 0.55 1.562 0.832 1.887 0.901 0.226 0.048 0.367 0.018 0.556-0.080 0.199-0.104 0.376-0.239 0.651-0.449 0.108-0.083 0.232-0.177 0.377-0.285l0-0 0.011-0.008c0.584-0.434 1.233-0.916 2.055-0.915 0.406 0 0.771 0.115 1.092 0.246 0.307 0.125 0.659 0.303 1.046 0.498l0.032 0.016c0.678 0.342 1.686 0.921 2.661 1.552 0.958 0.62 1.97 1.344 2.599 1.978l0.001 0.001c0.293 0.296 0.535 0.552 0.715 0.781 0.174 0.221 0.366 0.508 0.446 0.864 0.091 0.401 0.008 0.735-0.076 0.966-0.038 0.104-0.083 0.204-0.115 0.276-0.005 0.011-0.010 0.022-0.015 0.033-0.030 0.066-0.056 0.125-0.084 0.191l-0.001 0.002-0.001 0.002c-0.285 0.676-0.632 1.324-1.035 1.936l-0.001 0.002-0.001 0.002c-0.789 1.186-1.532 1.96-2.686 2.498-0.6 0.279-1.457 0.561-2.788 0.395-1.281-0.16-2.947-0.727-5.222-2.001l-0.001-0c-3.64-2.041-6.165-3.801-9.423-7.050-3.248-3.239-4.845-5.353-7.081-9.416-2.252-4.090-2.248-6.613-1.605-7.987 0.54-1.154 1.322-1.893 2.504-2.678l0.002-0.002 0.002-0.002c0.613-0.403 1.261-0.748 1.937-1.033l0.004-0.002c0.067-0.028 0.125-0.054 0.192-0.084 0.011-0.005 0.021-0.009 0.032-0.014 0.072-0.032 0.172-0.077 0.276-0.115 0.231-0.084 0.564-0.166 0.965-0.076 0.356 0.080 0.642 0.271 0.864 0.445zM6.386 3.069c-0.551 0.232-1.081 0.514-1.581 0.843-0.998 0.664-1.426 1.128-1.733 1.784-0.204 0.436-0.581 2.155 1.541 6.010 2.137 3.882 3.608 5.83 6.711 8.923 3.093 3.084 5.45 4.729 8.949 6.691 2.141 1.199 3.529 1.628 4.426 1.739 0.846 0.105 1.289-0.065 1.597-0.208 0.66-0.308 1.127-0.733 1.79-1.728 0.329-0.499 0.612-1.028 0.844-1.579 0.031-0.075 0.062-0.144 0.088-0.202-0.102-0.121-0.258-0.288-0.497-0.53-0.453-0.456-1.294-1.074-2.235-1.683-0.924-0.598-1.863-1.136-2.458-1.435-0.429-0.216-0.704-0.354-0.921-0.442-0.211-0.086-0.272-0.084-0.27-0.084 0.020 0-0.048-0.039-0.763 0.493-0.073 0.054-0.152 0.115-0.236 0.179-0.319 0.244-0.705 0.54-1.087 0.739-0.571 0.297-1.227 0.447-2.018 0.279-0.692-0.148-1.625-0.585-2.585-1.183-0.986-0.614-2.088-1.452-3.118-2.479s-1.886-2.142-2.518-3.14c-0.613-0.968-1.074-1.921-1.224-2.619-0.171-0.794-0.015-1.45 0.284-2.018 0.193-0.366 0.481-0.744 0.719-1.056 0.070-0.092 0.135-0.177 0.193-0.255 0.459-0.624 0.448-0.724 0.447-0.735-0-0-0-0.001-0-0.001-0-0.021-0.005-0.102-0.085-0.319-0.082-0.222-0.211-0.503-0.408-0.928-0.27-0.579-0.799-1.501-1.404-2.422-0.613-0.931-1.244-1.77-1.706-2.224l-0.001-0.001-0.001-0.001c-0.244-0.241-0.411-0.397-0.532-0.498-0.059 0.026-0.13 0.058-0.206 0.090z"></path>
</symbol>

<symbol id="arrow-up" viewBox="0 0 51 32">
<path d="M49.295 25.891l-20.967-24.468c-0.338-0.394-0.757-0.711-1.229-0.928s-0.985-0.329-1.504-0.329c-0.519 0-1.032 0.112-1.504 0.329s-0.891 0.533-1.229 0.928l-20.967 24.468c-2.001 2.335-0.342 5.943 2.733 5.943h41.94c3.075 0 4.734-3.608 2.727-5.943z"></path>
</symbol>

<symbol id="icon-flag-ukraine" viewBox="0 0 32 32">
<path fill="#005bbb" style="fill: var(--color1, #005bbb)" d="M28.444 4.444h-24.889c-0.943 0-1.847 0.375-2.514 1.041s-1.041 1.571-1.041 2.514v8h32v-8c0-0.943-0.375-1.847-1.041-2.514s-1.571-1.041-2.514-1.041z"></path>
<path fill="#ffd500" style="fill: var(--color2, #ffd500)" d="M32 24c0 0.943-0.375 1.847-1.041 2.514s-1.571 1.041-2.514 1.041h-24.889c-0.943 0-1.847-0.375-2.514-1.041s-1.041-1.571-1.041-2.514v-8h32v8z"></path>
</symbol>
</defs>
</svg>
