<svg aria-hidden="true" style="position: absolute; width: 0; height: 0; overflow: hidden;" version="1.1" xmlns="http://www.w3.org/2000/svg" xmlns:xlink="http://www.w3.org/1999/xlink">
<defs>
<symbol id="icon-telegram" viewBox="0 0 32 32">
<path d="M16 0c-8.838 0-16 7.162-16 16s7.162 16 16 16 16-7.163 16-16-7.163-16-16-16zM23.863 10.969l-2.625 12.369c-0.181 0.881-0.712 1.087-1.45 0.681l-4-2.956-1.919 1.869c-0.225 0.219-0.4 0.4-0.8 0.4-0.519 0-0.431-0.194-0.606-0.688l-1.363-4.475-3.956-1.231c-0.856-0.262-0.862-0.85 0.194-1.269l15.412-5.95c0.7-0.319 1.381 0.169 1.113 1.25z"></path>
</symbol>
<symbol id="icon-behance" viewBox="0 0 32 32">
<path d="M9.281 6.412c0.944 0 1.794 0.081 2.569 0.25 0.775 0.162 1.431 0.438 1.988 0.813 0.55 0.375 0.975 0.875 1.287 1.5 0.3 0.619 0.45 1.394 0.45 2.313 0 0.994-0.225 1.819-0.675 2.481-0.456 0.662-1.119 1.2-2.006 1.625 1.213 0.35 2.106 0.962 2.706 1.831 0.6 0.875 0.887 1.925 0.887 3.163 0 1-0.194 1.856-0.575 2.581-0.387 0.731-0.912 1.325-1.556 1.781-0.65 0.462-1.4 0.8-2.237 1.019-0.831 0.219-1.688 0.331-2.575 0.331h-9.544v-19.688h9.281zM8.719 14.363c0.769 0 1.406-0.181 1.906-0.55 0.5-0.363 0.738-0.963 0.738-1.787 0-0.456-0.081-0.838-0.244-1.131-0.169-0.294-0.387-0.525-0.669-0.688-0.275-0.169-0.588-0.281-0.956-0.344-0.356-0.069-0.731-0.1-1.113-0.1h-4.050v4.6h4.388zM8.956 22.744c0.425 0 0.831-0.038 1.213-0.125 0.387-0.087 0.731-0.219 1.019-0.419 0.287-0.194 0.531-0.45 0.706-0.788 0.175-0.331 0.256-0.756 0.256-1.275 0-1.012-0.287-1.738-0.856-2.175-0.569-0.431-1.325-0.644-2.262-0.644h-4.7v5.419h4.625z"></path>
<path d="M22.663 22.675c0.587 0.575 1.431 0.863 2.531 0.863 0.788 0 1.475-0.2 2.044-0.6s0.913-0.825 1.044-1.262h3.45c-0.556 1.719-1.394 2.938-2.544 3.675-1.131 0.738-2.519 1.113-4.125 1.113-1.125 0-2.131-0.181-3.038-0.538-0.906-0.363-1.663-0.869-2.3-1.531-0.619-0.663-1.106-1.45-1.45-2.375-0.337-0.919-0.512-1.938-0.512-3.038 0-1.069 0.175-2.063 0.525-2.981 0.356-0.925 0.844-1.719 1.494-2.387s1.413-1.2 2.313-1.588c0.894-0.387 1.881-0.581 2.975-0.581 1.206 0 2.262 0.231 3.169 0.706 0.9 0.469 1.644 1.1 2.225 1.887s0.994 1.694 1.25 2.706c0.256 1.012 0.344 2.069 0.275 3.175h-10.294c0 1.119 0.375 2.188 0.969 2.756zM27.156 15.188c-0.462-0.512-1.256-0.794-2.212-0.794-0.625 0-1.144 0.106-1.556 0.319-0.406 0.213-0.738 0.475-0.994 0.787-0.25 0.313-0.425 0.65-0.525 1.006-0.1 0.344-0.163 0.663-0.181 0.938h6.375c-0.094-1-0.438-1.738-0.906-2.256z"></path>
<path d="M20.887 8h7.981v1.944h-7.981v-1.944z"></path>
</symbol>
<symbol id="icon-linkedin2" viewBox="0 0 32 32">
<path d="M12 12h5.535v2.837h0.079c0.77-1.381 2.655-2.837 5.464-2.837 5.842 0 6.922 3.637 6.922 8.367v9.633h-5.769v-8.54c0-2.037-0.042-4.657-3.001-4.657-3.005 0-3.463 2.218-3.463 4.509v8.688h-5.767v-18z"></path>
<path d="M2 12h6v18h-6v-18z"></path>
<path d="M8 7c0 1.657-1.343 3-3 3s-3-1.343-3-3c0-1.657 1.343-3 3-3s3 1.343 3 3z"></path>
</symbol>
<symbol id="mail" viewBox="0 0 39 32">
<path d="M5.556 4c-1.105 0-2 0.895-2 2v20c0 1.105 0.895 2 2 2h28c1.105 0 2-0.895 2-2v-20c0-1.105-0.895-2-2-2h-28zM0.889 6c0-2.577 2.089-4.667 4.667-4.667h28c2.577 0 4.667 2.089 4.667 4.667v20c0 2.577-2.089 4.667-4.667 4.667h-28c-2.577 0-4.667-2.089-4.667-4.667v-20z"></path>
<path d="M6.503 7.181c0.452-0.581 1.29-0.686 1.871-0.234l11.181 8.697 11.181-8.697c0.581-0.452 1.419-0.347 1.871 0.234s0.347 1.419-0.234 1.871l-12 9.333c-0.482 0.375-1.156 0.375-1.637 0l-12-9.333c-0.581-0.452-0.686-1.29-0.234-1.871z"></path>
</symbol>
<symbol id="phone" viewBox="0 0 32 32">
<path fill="#fff" style="fill: var(--color1, #fff)" d="M7.876 1.211c0.229 0.18 0.486 0.421 0.781 0.713 0.633 0.623 1.368 1.622 1.998 2.58 0.637 0.969 1.228 1.989 1.559 2.7l0 0.001c0.188 0.403 0.357 0.769 0.476 1.090 0.121 0.325 0.221 0.683 0.222 1.074 0.001 0.818-0.442 1.449-0.87 2.031-0.123 0.167-0.227 0.304-0.317 0.422-0.194 0.255-0.321 0.421-0.423 0.614-0.099 0.188-0.128 0.324-0.081 0.543 0.068 0.316 0.362 1.006 0.934 1.91 0.553 0.874 1.31 1.859 2.215 2.761s1.874 1.639 2.731 2.172c0.882 0.55 1.562 0.832 1.887 0.901 0.226 0.048 0.367 0.018 0.556-0.080 0.199-0.104 0.376-0.239 0.651-0.449 0.108-0.083 0.232-0.177 0.377-0.285l0-0 0.011-0.008c0.584-0.434 1.233-0.916 2.055-0.915 0.406 0 0.771 0.115 1.092 0.246 0.307 0.125 0.659 0.303 1.046 0.498l0.032 0.016c0.678 0.342 1.686 0.921 2.661 1.552 0.958 0.62 1.97 1.344 2.599 1.978l0.001 0.001c0.293 0.296 0.535 0.552 0.715 0.781 0.174 0.221 0.366 0.508 0.446 0.864 0.091 0.401 0.008 0.735-0.076 0.966-0.038 0.104-0.083 0.204-0.115 0.276-0.005 0.011-0.010 0.022-0.015 0.033-0.030 0.066-0.056 0.125-0.084 0.191l-0.001 0.002-0.001 0.002c-0.285 0.676-0.632 1.324-1.035 1.936l-0.001 0.002-0.001 0.002c-0.789 1.186-1.532 1.96-2.686 2.498-0.6 0.279-1.457 0.561-2.788 0.395-1.281-0.16-2.947-0.727-5.222-2.001l-0.001-0c-3.64-2.041-6.165-3.801-9.423-7.050-3.248-3.239-4.845-5.353-7.081-9.416-2.252-4.090-2.248-6.613-1.605-7.987 0.54-1.154 1.322-1.893 2.504-2.678l0.002-0.002 0.002-0.002c0.613-0.403 1.261-0.748 1.937-1.033l0.004-0.002c0.067-0.028 0.125-0.054 0.192-0.084 0.011-0.005 0.021-0.009 0.032-0.014 0.072-0.032 0.172-0.077 0.276-0.115 0.231-0.084 0.564-0.166 0.965-0.076 0.356 0.080 0.642 0.271 0.864 0.445zM6.386 3.069c-0.551 0.232-1.081 0.514-1.581 0.843-0.998 0.664-1.426 1.128-1.733 1.784-0.204 0.436-0.581 2.155 1.541 6.010 2.137 3.882 3.608 5.83 6.711 8.923 3.093 3.084 5.45 4.729 8.949 6.691 2.141 1.199 3.529 1.628 4.426 1.739 0.846 0.105 1.289-0.065 1.597-0.208 0.66-0.308 1.127-0.733 1.79-1.728 0.329-0.499 0.612-1.028 0.844-1.579 0.031-0.075 0.062-0.144 0.088-0.202-0.102-0.121-0.258-0.288-0.497-0.53-0.453-0.456-1.294-1.074-2.235-1.683-0.924-0.598-1.863-1.136-2.458-1.435-0.429-0.216-0.704-0.354-0.921-0.442-0.211-0.086-0.272-0.084-0.27-0.084 0.020 0-0.048-0.039-0.763 0.493-0.073 0.054-0.152 0.115-0.236 0.179-0.319 0.244-0.705 0.54-1.087 0.739-0.571 0.297-1.227 0.447-2.018 0.279-0.692-0.148-1.625-0.585-2.585-1.183-0.986-0.614-2.088-1.452-3.118-2.479s-1.886-2.142-2.518-3.14c-0.613-0.968-1.074-1.921-1.224-2.619-0.171-0.794-0.015-1.45 0.284-2.018 0.193-0.366 0.481-0.744 0.719-1.056 0.070-0.092 0.135-0.177 0.193-0.255 0.459-0.624 0.448-0.724 0.447-0.735-0-0-0-0.001-0-0.001-0-0.021-0.005-0.102-0.085-0.319-0.082-0.222-0.211-0.503-0.408-0.928-0.27-0.579-0.799-1.501-1.404-2.422-0.613-0.931-1.244-1.77-1.706-2.224l-0.001-0.001-0.001-0.001c-0.244-0.241-0.411-0.397-0.532-0.498-0.059 0.026-0.13 0.058-0.206 0.090z"></path>
</symbol>
<symbol id="arrow-up" viewBox="0 0 51 32">
<path d="M49.295 25.891l-20.967-24.468c-0.338-0.394-0.757-0.711-1.229-0.928s-0.985-0.329-1.504-0.329c-0.519 0-1.032 0.112-1.504 0.329s-0.891 0.533-1.229 0.928l-20.967 24.468c-2.001 2.335-0.342 5.943 2.733 5.943h41.94c3.075 0 4.734-3.608 2.727-5.943z"></path>
</symbol>
</defs>
</svg>
